<?xml version="1.0" standalone="no"?>
<!DOCTYPE svg PUBLIC "-//W3C//DTD SVG 20010904//EN"
 "http://www.w3.org/TR/2001/REC-SVG-20010904/DTD/svg10.dtd">
<svg version="1.0" xmlns="http://www.w3.org/2000/svg"
 width="889.000000pt" height="889.000000pt" viewBox="0 0 889.000000 889.000000"
 preserveAspectRatio="xMidYMid meet">

<g transform="translate(0.000000,889.000000) scale(0.100000,-0.100000)"
fill="#000000" stroke="none">
<path d="M1413 2034 c-15 -11 -15 -13 -3 -14 12 -1 12 -2 -1 -10 -9 -5 -20
-29 -23 -53 -4 -24 -9 -56 -11 -70 l-5 -26 42 19 c24 10 44 24 46 29 2 6 9 11
15 11 13 0 67 50 67 63 0 5 -9 -1 -20 -14 -10 -13 -19 -19 -20 -13 0 6 3 14 7
18 4 3 8 16 10 29 3 20 3 20 -10 3 -8 -11 -23 -17 -40 -14 -34 4 -37 19 -8 34
l22 11 -25 5 c-14 3 -34 -1 -43 -8z m42 -64 c3 -5 -1 -10 -9 -10 -8 0 -18 5
-21 10 -3 6 1 10 9 10 8 0 18 -4 21 -10z"/>
</g>
</svg>
